<?xml version="1.0" encoding="utf-8"?>
<!-- Generator: Adobe Illustrator 24.0.1, SVG Export Plug-In . SVG Version: 6.00 Build 0)  -->
<svg version="1.1" id="圖層_1" xmlns="http://www.w3.org/2000/svg" xmlns:xlink="http://www.w3.org/1999/xlink" x="0px" y="0px"
	 viewBox="0 0 100 91" style="enable-background:new 0 0 100 91;" xml:space="preserve">
<style type="text/css">
	.st0{fill:none;}
</style>
<title>資產 1</title>
<g id="圖層_2_1_">
	<g id="圖層_1-2">
		<rect class="st0" width="100" height="91"/>
		<path d="M22.8,22.3H78c2.2,0,4,1.8,4,4l0,0c0,2.2-1.8,4-4,4H22.8c-2.2,0-4-1.8-4-4l0,0C18.8,24,20.5,22.3,22.8,22.3z"/>
		<path d="M22.8,60.3h55c2.2,0,4,1.8,4,4l0,0c0,2.2-1.8,4-4,4h-55c-2.2,0-4-1.8-4-4l0,0C18.8,62,20.5,60.3,22.8,60.3z"/>
		<path d="M22.8,41.3h55c2.2,0,4,1.8,4,4l0,0c0,2.2-1.8,4-4,4h-55c-2.2,0-4-1.8-4-4l0,0C18.8,43,20.5,41.3,22.8,41.3z"/>
	</g>
</g>
</svg>
