<svg xmlns="http://www.w3.org/2000/svg" viewBox="0 0 4500 4500"><defs><style>.cls-1{fill:#bbf2ff;}.cls-2{fill:#fffab8;}.cls-3,.cls-4,.cls-5{fill:none;}.cls-3,.cls-4{stroke:#0a0908;stroke-width:25px;}.cls-3{stroke-miterlimit:10;}.cls-4{stroke-linecap:round;stroke-linejoin:round;}</style></defs><title>camera</title><g id="圖層_2" data-name="圖層 2"><g id="Layer_1" data-name="Layer 1"><path class="cls-1" d="M1300.22,3091.91a63.13,63.13,0,1,1,0,126.26H827.6a63.13,63.13,0,1,1,0-126.26Z"/><path class="cls-1" d="M2923.19,2099.67A714.79,714.79,0,0,1,2972,2360.31c0,396.11-322.26,718.37-718.38,718.37s-718.36-322.26-718.36-718.37A715,715,0,0,1,1584,2099.67C1692.27,1821.62,1955.11,1642,2253.57,1642S2814.89,1821.62,2923.19,2099.67Zm-144.9,260.64a524.71,524.71,0,1,0-1049.42,0c0,140.16,54.58,271.92,153.68,371s230.87,153.68,371,153.68,271.93-54.58,371-153.68S2778.29,2500.47,2778.29,2360.31Z"/><path class="cls-2" d="M4059.63,2108.1v925.54c0,206.9-168.32,375.23-375.21,375.23H822.74c-206.91,0-375.23-168.33-375.23-375.23V2108.1h1105c-.46,1.26-.91,2.52-1.35,3.79s-.89,2.53-1.33,3.79q-4,11.59-7.68,23.3c-.43,1.37-.85,2.74-1.27,4.12q-1.26,4.13-2.46,8.26-.62,2.07-1.2,4.14c-.4,1.38-.79,2.77-1.17,4.15s-.78,2.76-1.15,4.15-.76,2.76-1.12,4.15-.74,2.78-1.1,4.17-.72,2.77-1.07,4.16-.71,2.78-1.05,4.18-.69,2.79-1,4.18q-1.44,5.94-2.78,11.9c-.11.51-.23,1-.34,1.53q-1.73,7.71-3.26,15.47c-.33,1.6-.64,3.21-1,4.81-.27,1.39-.54,2.77-.79,4.16s-.53,2.83-.78,4.24-.51,2.79-.75,4.18q-.45,2.58-.88,5.15-1,5.84-1.87,11.7l-.66,4.48c-.21,1.42-.41,2.84-.61,4.27s-.39,2.85-.58,4.28-.38,2.85-.56,4.28c-.37,2.85-.71,5.71-1,8.57s-.65,5.73-.94,8.59c-.15,1.43-.3,2.87-.44,4.31-.11,1.12-.22,2.24-.32,3.36,0,.58-.11,1.16-.16,1.73q-.36,3.92-.67,7.84-.5,6.12-.89,12.25l-.21,3.4c-.12,2.08-.24,4.16-.34,6.24-.08,1.36-.14,2.72-.2,4.08q-.46,10-.66,20.09c0,.86,0,1.72,0,2.58q-.1,6.07-.1,12.18A742.48,742.48,0,0,0,1726.89,2887q17.64,17.64,36.26,34,3.38,3,6.8,5.89,5.11,4.38,10.32,8.67,3.46,2.86,7,5.67,5.24,4.23,10.55,8.34,3.54,2.74,7.12,5.45t7.17,5.36q3.6,2.65,7.24,5.27t7.29,5.18q3.68,2.56,7.36,5.09a744.65,744.65,0,0,0,1164.46-615.56q0-6.11-.1-12.18c0-.86,0-1.72,0-2.58q-.2-10.07-.66-20.09c-.06-1.31-.12-2.62-.19-3.93q-.15-3-.33-6.08c-.07-1.23-.15-2.47-.23-3.7q-.39-6.14-.89-12.26-.17-2.16-.36-4.32c-.21-2.51-.44-5-.69-7.52-.07-.78-.15-1.56-.23-2.33-.1-1-.2-2.05-.31-3.07q-1.17-11.39-2.71-22.71c-.17-1.27-.35-2.54-.53-3.82s-.37-2.64-.57-4c-.38-2.64-.78-5.29-1.2-7.93q-.93-5.94-2-11.87c-.23-1.32-.46-2.64-.7-3.95q-1.29-7.24-2.74-14.46c-.24-1.23-.49-2.45-.75-3.68-.28-1.41-.57-2.82-.88-4.24s-.56-2.67-.86-4c-.61-2.87-1.26-5.74-1.92-8.6-.29-1.28-.58-2.55-.89-3.83q-1-4.38-2.11-8.73c-.34-1.4-.69-2.79-1.05-4.18q-2.11-8.34-4.44-16.63c-.38-1.38-.77-2.77-1.17-4.15s-.79-2.76-1.2-4.14-.78-2.67-1.18-4q-4.74-15.93-10.23-31.68c-.44-1.26-.88-2.53-1.33-3.79s-.89-2.53-1.35-3.79ZM1363.35,3155a63.13,63.13,0,0,0-63.13-63.13H827.6a63.13,63.13,0,1,0,0,126.26h472.62a63.13,63.13,0,0,0,63.13-63.13Z"/><path class="cls-2" d="M971.36,1143.14v142.15H822.74c-1.64,0-3.27,0-4.91,0l-1.3,0c-1.7,0-3.4.06-5.09.11h-.07c-1.67,0-3.33.1-5,.17l-1.24.05c-1.49.07-3,.14-4.47.23-1.7.08-3.41.18-5.11.31-.64,0-1.28.08-1.93.13-1.39.09-2.78.2-4.17.32l-.78.06c-1.8.15-3.59.31-5.38.49s-3.73.37-5.59.58V1143.14a96.83,96.83,0,0,1,193.66,0Z"/><path class="cls-2" d="M1350.12,1280.22v5.07H1156.46v-5.07a96.83,96.83,0,0,1,193.66,0Z"/><path class="cls-2" d="M2984.86,1285.29H1522.3c6.89-140.46,123-252.22,265.12-252.22h932.32C2861.89,1033.07,2978,1144.83,2984.86,1285.29Zm-214-14.81v-13.24c0-108.14-88-196.13-196.13-196.13H1932.41a196.09,196.09,0,0,0-196.13,196.13v13.24Z"/><path class="cls-2" d="M4059.63,1687v394.66H2944.52c-.37-.92-.74-1.84-1.12-2.75-.28-.71-.57-1.41-.87-2.12q-1-2.43-2-4.84c-.23-.56-.47-1.11-.7-1.67q-1.25-2.94-2.52-5.87-1.37-3.18-2.78-6.35-1.23-2.81-2.51-5.59-.2-.46-.42-.93-1.38-3-2.8-6.07-1.32-2.87-2.7-5.72c-.1-.23-.21-.46-.32-.69-.73-1.54-1.47-3.08-2.24-4.62-1.22-2.55-2.48-5.1-3.75-7.63-1-2.06-2.06-4.11-3.12-6.16s-2.1-4.09-3.17-6.12-2.13-4.07-3.22-6.09-2.26-4.2-3.41-6.29q-3.24-5.91-6.58-11.76h0q-3.34-5.85-6.79-11.62l-.24-.4q-5.05-8.47-10.33-16.8c-.36-.57-.72-1.14-1.09-1.7q-1.49-2.34-3-4.67c-1.24-1.92-2.49-3.84-3.76-5.74q-4.44-6.74-9-13.34c-.8-1.16-1.6-2.31-2.41-3.46-.17-.25-.34-.5-.53-.74q-1.77-2.54-3.59-5.06t-3.55-4.92q-2.91-4-5.9-8c-.78-1.06-1.58-2.12-2.38-3.17-.37-.5-.75-1-1.13-1.49-1-1.27-1.93-2.52-2.9-3.78-1.28-1.67-2.58-3.34-3.89-5-1-1.27-2-2.53-3-3.79-.28-.37-.57-.74-.87-1.1q-1.49-1.87-3-3.73c-.53-.67-1.07-1.33-1.61-2-1.2-1.48-2.4-2.94-3.62-4.4q-2.13-2.6-4.31-5.16-1.61-1.92-3.24-3.82l-2.44-2.84c-1.19-1.38-2.38-2.75-3.59-4.12q-1.61-1.83-3.22-3.65c-.55-.62-1.1-1.24-1.67-1.86-.91-1-1.85-2.08-2.79-3.11-.4-.45-.8-.9-1.22-1.34q-1.66-1.85-3.38-3.69-3-3.3-6.11-6.56c-1.25-1.33-2.5-2.65-3.77-4l-.11-.12q-2.16-2.25-4.35-4.49l-.64-.66c-1.38-1.42-2.77-2.83-4.19-4.24-.14-.16-.3-.32-.47-.48q-1.93-2-3.9-3.89c-.54-.55-1.1-1.1-1.65-1.63-1-1-2-2-3-2.94-1.47-1.45-3-2.87-4.44-4.29l-2.57-2.45q-1.71-1.64-3.43-3.23l-.18-.17c-1.57-1.48-3.16-3-4.75-4.41a3.38,3.38,0,0,0-.35-.31q-2.13-2-4.28-3.91c-.45-.41-.9-.82-1.35-1.21-1.34-1.22-2.68-2.42-4-3.62l-.42-.36q-2.36-2.1-4.74-4.17l-.1-.08c-1.68-1.46-3.36-2.92-5.06-4.36s-3.44-2.93-5.17-4.38q-3-2.52-6-5c-1.48-1.22-3-2.42-4.44-3.62q-5-4-10-8l-2.8-2.17-3.23-2.48q-2.7-2.09-5.43-4.12-10.89-8.17-22.12-16c-125.1-87.1-272.1-133.14-425.1-133.14s-300,46-425.09,133.14q-8.42,5.87-16.65,11.93c-1.83,1.35-3.65,2.7-5.47,4.07s-3.63,2.73-5.43,4.12q-2.46,1.88-4.9,3.78c-2,1.52-3.89,3-5.82,4.58-1.78,1.4-3.54,2.82-5.3,4.25s-3.51,2.84-5.26,4.29q-5,4.06-9.82,8.24c-.29.24-.58.48-.87.74q-2.42,2.06-4.82,4.16c-1.63,1.41-3.26,2.84-4.87,4.27l-.33.28q-2,1.8-4,3.62l-1.29,1.16q-2.31,2.07-4.6,4.2-2.49,2.26-5,4.59c-1.53,1.41-3,2.85-4.55,4.29l-.71.68q-1.63,1.55-3.25,3.12c-.64.6-1.26,1.21-1.89,1.83-1.41,1.36-2.8,2.73-4.19,4.11s-2.7,2.67-4,4c-.5.49-1,1-1.48,1.49q-2,2-4,4.06c-1.56,1.59-3.11,3.18-4.64,4.79l-.09.09c-1.54,1.6-3.07,3.22-4.59,4.84s-2.8,3-4.17,4.47c-.31.32-.61.64-.9,1-1,1.13-2.1,2.27-3.13,3.41-.7.77-1.4,1.55-2.11,2.32l-2.13,2.38c-.89,1-1.77,2-2.64,3-.61.68-1.22,1.37-1.82,2.06q-1.23,1.4-2.43,2.79c-.93,1-1.85,2.11-2.75,3.17-.25.28-.49.56-.73.85q-2,2.36-4,4.74-2.18,2.57-4.31,5.16t-4.26,5.19q-2,2.47-4,5c-.28.34-.56.69-.83,1q-1.51,1.89-3,3.79c-1.3,1.65-2.6,3.32-3.89,5-1,1.26-1.94,2.51-2.9,3.78l-1.13,1.49c-.8,1-1.59,2.11-2.38,3.17q-3,4-5.9,8c-.85,1.17-1.7,2.34-2.53,3.51q-2.64,3.63-5.21,7.31c-.9,1.29-1.81,2.59-2.7,3.89s-1.71,2.47-2.55,3.72-1.87,2.73-2.79,4.1q-15.08,22.39-28.54,45.93c-1.14,2-2.26,4-3.38,6q-7.29,13-14.06,26.35-1,2-2.06,4.09c-1.27,2.53-2.53,5.08-3.75,7.63-.77,1.54-1.51,3.08-2.24,4.62-.11.23-.22.46-.32.69q-1.38,2.85-2.7,5.72-1.42,3-2.8,6.07-.22.47-.42.93-1.28,2.79-2.51,5.59-1.41,3.16-2.78,6.35-1.27,2.92-2.52,5.87c-.23.56-.47,1.11-.7,1.67q-1,2.41-2,4.84c-.3.71-.59,1.41-.87,2.12-.38.91-.75,1.83-1.12,2.75H447.51V1687c0-183.37,135.91-342.27,316.55-370.64l2.39-.36q5.19-.78,10.42-1.43,3.5-.43,7-.79c2.34-.24,4.69-.46,7-.66,10.56-.88,21.21-1.33,31.84-1.33H3684.42C3891.31,1311.76,4059.63,1480.08,4059.63,1687Z"/><path d="M4086.1,2108.1v925.54c0,107.3-41.78,208.18-117.65,284.05s-176.74,117.65-284,117.65H822.74c-107.3,0-208.17-41.78-284-117.65S421,3140.94,421,3033.64V2108.1h26.47v925.54c0,206.9,168.32,375.23,375.23,375.23H3684.42c206.89,0,375.21-168.33,375.21-375.23V2108.1Z"/><path d="M4086.1,2081.63v26.47H2954.62q-3.26-9.06-6.76-18-1.65-4.23-3.34-8.43H4086.1Z"/><path d="M4086.1,1687v394.66h-26.47V1687c0-206.89-168.32-375.21-375.21-375.21H1376.59v-26.47H1522.3q-.33,6.57-.33,13.23H2985.19q0-6.66-.33-13.23h699.56c107.29,0,208.17,41.78,284,117.65S4086.1,1579.67,4086.1,1687Z"/><path d="M2998.32,2348.13c0-.86,0-1.72,0-2.58C2998.29,2346.41,2998.31,2347.27,2998.32,2348.13Z"/><path d="M2997.62,2325.46c-.06-1.31-.12-2.62-.19-3.93C2997.5,2322.84,2997.56,2324.15,2997.62,2325.46Z"/><path d="M2997.1,2315.45c-.08-1.24-.15-2.47-.23-3.7C2997,2313,2997,2314.22,2997.1,2315.45Z"/><path d="M2996,2299.49q-.17-2.16-.36-4.32Q2995.82,2297.33,2996,2299.49Z"/><path d="M2994.93,2287.65c-.07-.78-.15-1.56-.23-2.33C2994.78,2286.09,2994.86,2286.87,2994.93,2287.65Z"/><path d="M2994.7,2285.32c-.1-1-.2-2.05-.31-3.07C2994.5,2283.27,2994.6,2284.3,2994.7,2285.32Z"/><path d="M2991.68,2259.54c-.17-1.28-.35-2.55-.53-3.82C2991.33,2257,2991.51,2258.27,2991.68,2259.54Z"/><path d="M2991.15,2255.72c-.18-1.32-.37-2.65-.57-4C2990.78,2253.08,2991,2254.4,2991.15,2255.72Z"/><path d="M2989.38,2243.82c.42,2.64.82,5.29,1.2,7.93Q2990,2247.77,2989.38,2243.82Z"/><path d="M2987.42,2232c-.23-1.32-.46-2.63-.7-3.95C2987,2229.31,2987.19,2230.63,2987.42,2232Z"/><path d="M2985.19,1298.52H1522q0-6.66.33-13.23H2984.86Q2985.19,1291.86,2985.19,1298.52Z"/><path d="M2984,2213.54c-.24-1.23-.49-2.46-.75-3.68C2983.49,2211.09,2983.74,2212.31,2984,2213.54Z"/><path d="M2982.35,2205.62c-.28-1.33-.56-2.67-.86-4C2981.79,2203,2982.07,2204.29,2982.35,2205.62Z"/><path d="M2979.57,2193c-.29-1.28-.59-2.56-.89-3.83C2979,2190.47,2979.28,2191.74,2979.57,2193Z"/><path d="M2976.57,2180.46c-.34-1.39-.69-2.78-1.05-4.18C2975.88,2177.67,2976.23,2179.06,2976.57,2180.46Z"/><path d="M2971.08,2159.65l-1.17-4.15C2970.31,2156.88,2970.7,2158.27,2971.08,2159.65Z"/><path d="M2969.91,2155.5q-.59-2.07-1.2-4.14C2969.12,2152.74,2969.51,2154.12,2969.91,2155.5Z"/><path d="M2968.71,2151.36c-.39-1.33-.78-2.67-1.18-4C2967.93,2148.69,2968.32,2150,2968.71,2151.36Z"/><path d="M2957.3,2115.68c-.44-1.27-.88-2.53-1.33-3.79C2956.42,2113.15,2956.86,2114.42,2957.3,2115.68Z"/><path d="M2954.62,2108.1h-28.14l-3.29-8.43-7-18h28.36q1.7,4.2,3.34,8.43Q2951.36,2099,2954.62,2108.1Z"/><path d="M2943.4,2078.88c.38.91.75,1.83,1.12,2.75h0C2944.15,2080.71,2943.77,2079.79,2943.4,2078.88Z"/><path d="M2942.53,2076.76q-1-2.43-2-4.84Q2941.54,2074.34,2942.53,2076.76Z"/><path d="M2939.82,2070.25q-1.25-2.94-2.52-5.87Q2938.58,2067.3,2939.82,2070.25Z"/><path d="M2937.3,2064.38q-1.37-3.18-2.78-6.35Q2935.93,2061.19,2937.3,2064.38Z"/><path d="M2934.52,2058c-.83-1.87-1.66-3.73-2.51-5.59Q2933.29,2055.23,2934.52,2058Z"/><path d="M2931.59,2051.51c-.92-2-1.86-4.06-2.8-6.07Q2930.21,2048.47,2931.59,2051.51Z"/><path d="M2928.79,2045.44q-1.34-2.87-2.7-5.72Q2927.47,2042.57,2928.79,2045.44Z"/><path d="M2926.48,2108.1h28.14c.46,1.26.91,2.52,1.35,3.79s.89,2.52,1.33,3.79q5.49,15.75,10.23,31.68c.4,1.33.79,2.67,1.18,4s.81,2.76,1.2,4.14l1.17,4.15q2.33,8.29,4.44,16.63c.36,1.4.71,2.79,1.05,4.18q1.09,4.35,2.11,8.73c.3,1.27.6,2.55.89,3.83.66,2.86,1.31,5.73,1.92,8.6.3,1.33.58,2.67.86,4s.6,2.83.88,4.24c.26,1.22.51,2.45.75,3.68q1.45,7.22,2.74,14.46c.24,1.32.47,2.63.7,3.95q1,5.93,2,11.87.63,4,1.2,7.93c.2,1.32.39,2.65.57,4s.36,2.54.53,3.82q1.53,11.33,2.71,22.71c.11,1,.21,2.05.31,3.07.08.77.16,1.55.23,2.33.25,2.51.48,5,.69,7.52q.2,2.16.36,4.32.49,6.12.89,12.26c.08,1.23.15,2.46.23,3.7q.18,3,.33,6.08c.07,1.31.13,2.62.19,3.93q.47,10,.66,20.09c0,.86,0,1.72,0,2.58q.1,6.07.1,12.18A744.74,744.74,0,0,1,1834,2975.87q-3.69-2.52-7.36-5.09t-7.29-5.18q-3.63-2.61-7.24-5.27t-7.17-5.36q-3.57-2.7-7.12-5.45-5.31-4.12-10.55-8.34-3.49-2.82-7-5.67-5.2-4.29-10.32-8.67-3.42-2.93-6.8-5.89-18.62-16.32-36.26-34a742.48,742.48,0,0,1-218.15-526.68q0-6.11.1-12.18c0-.86,0-1.72,0-2.58q.19-10.07.66-20.09c.06-1.36.12-2.72.2-4.08.1-2.08.22-4.16.34-6.24l.21-3.4q.39-6.13.89-12.25.32-3.93.67-7.84c.05-.57.11-1.15.16-1.73.1-1.12.21-2.24.32-3.36.14-1.44.29-2.87.44-4.31.29-2.86.61-5.72.94-8.59s.68-5.72,1-8.57c.18-1.43.37-2.85.56-4.28s.38-2.85.58-4.28.4-2.84.61-4.27l.66-4.48q.88-5.87,1.87-11.7.43-2.57.88-5.15l.75-4.18c.25-1.41.51-2.82.78-4.24s.52-2.77.79-4.16c.31-1.6.62-3.21,1-4.81q1.54-7.76,3.26-15.47c.11-.51.23-1,.34-1.53q1.35-6,2.78-11.9c.34-1.39.68-2.79,1-4.18s.69-2.78,1.05-4.18.71-2.78,1.07-4.16.72-2.78,1.1-4.17.74-2.77,1.12-4.15.76-2.77,1.15-4.15l1.17-4.15q.59-2.07,1.2-4.14c.8-2.75,1.62-5.51,2.46-8.26.42-1.37.84-2.74,1.27-4.12q3.63-11.7,7.68-23.3c.44-1.27.88-2.53,1.33-3.79s.89-2.53,1.35-3.79h28.14l3.28-8.43a715,715,0,0,0-48.75,260.64c0,396.11,322.25,718.37,718.36,718.37S2972,2756.42,2972,2360.31a714.79,714.79,0,0,0-48.76-260.64Z"/><path d="M2925.77,2039c-.74-1.54-1.48-3.08-2.24-4.62C2924.3,2036,2925,2037.49,2925.77,2039Z"/><path d="M2923.19,2099.67C2814.89,1821.62,2552,1642,2253.57,1642s-561.3,179.67-669.61,457.72l7-18h-28.34c.36-.92.74-1.84,1.11-2.75.28-.71.57-1.41.87-2.12q1-2.43,2-4.84c.23-.56.47-1.11.7-1.67q1.25-2.94,2.52-5.87,1.37-3.18,2.78-6.35c.83-1.87,1.66-3.73,2.51-5.59q.19-.46.42-.93c.92-2,1.86-4.06,2.8-6.07s1.78-3.82,2.7-5.72c.1-.23.21-.46.32-.69.74-1.54,1.48-3.08,2.24-4.62,1.22-2.55,2.48-5.1,3.75-7.63q1-2.05,2.06-4.09,6.76-13.34,14.06-26.35,1.68-3,3.38-6,13.45-23.52,28.54-45.93,1.38-2.06,2.79-4.1,1.26-1.87,2.55-3.72c.89-1.3,1.8-2.6,2.7-3.89q2.58-3.67,5.21-7.31c.83-1.17,1.68-2.35,2.53-3.51q2.92-4,5.9-8c.78-1.06,1.58-2.12,2.38-3.17l1.13-1.49c1-1.27,1.93-2.52,2.9-3.78,1.29-1.67,2.59-3.34,3.89-5q1.49-1.9,3-3.79c.27-.36.55-.71.83-1,1.33-1.66,2.66-3.32,4-5s2.83-3.47,4.26-5.19,2.86-3.45,4.31-5.16,2.68-3.16,4-4.74c.24-.29.48-.57.73-.85.9-1.06,1.82-2.12,2.75-3.17s1.61-1.86,2.43-2.79c.6-.69,1.21-1.38,1.82-2.06.87-1,1.75-2,2.64-3l2.13-2.38c.7-.77,1.4-1.55,2.11-2.32l3.13-3.41c.29-.33.59-.65.9-1q2.07-2.23,4.17-4.47,2.28-2.43,4.59-4.84l.09-.09c1.54-1.6,3.08-3.2,4.64-4.79q2-2,4-4.06c.49-.5,1-1,1.48-1.49q2-2,4-4t4.19-4.11c.63-.62,1.25-1.23,1.89-1.83l3.25-3.12.71-.68c1.51-1.43,3-2.87,4.55-4.29s3.29-3.07,5-4.59,3.06-2.81,4.6-4.2l1.29-1.16,4-3.62.33-.28,4.87-4.27c1.6-1.4,3.21-2.78,4.82-4.16.29-.26.58-.5.87-.74q4.88-4.17,9.82-8.24c1.74-1.44,3.5-2.87,5.26-4.29s3.52-2.84,5.3-4.25c1.93-1.54,3.87-3.06,5.82-4.58q2.45-1.9,4.9-3.78,2.7-2.07,5.43-4.12c1.81-1.36,3.64-2.72,5.47-4.07q8.22-6.06,16.65-11.93c125.11-87.1,272.1-133.14,425.09-133.14s300,46,425.1,133.14q11.22,7.82,22.12,16,2.73,2.06,5.43,4.12l3.23,2.48,2.8,2.17q5,3.94,10,8l4.44,3.62q3,2.49,6,5c1.73,1.45,3.46,2.91,5.17,4.38s3.38,2.9,5.06,4.36l.1.08,4.74,4.17.42.36,4,3.62c.45.39.9.8,1.35,1.21q2.14,1.93,4.28,3.91a3.38,3.38,0,0,1,.35.31c1.59,1.46,3.18,2.93,4.75,4.41l.18.17c1.15,1.07,2.29,2.14,3.43,3.23.86.8,1.72,1.62,2.57,2.45,1.49,1.42,3,2.84,4.44,4.29,1,1,2,2,3,2.94.55.53,1.11,1.08,1.65,1.63q2,1.93,3.9,3.89c.17.16.33.32.47.48,1.41,1.41,2.8,2.82,4.19,4.24l.64.66c1.46,1.49,2.9,3,4.35,4.49l.11.12,3.77,4q3.08,3.26,6.11,6.56,1.71,1.85,3.38,3.69c.42.44.82.89,1.22,1.34.94,1,1.87,2.07,2.79,3.11.57.62,1.12,1.24,1.67,1.86l3.22,3.65c1.21,1.37,2.4,2.74,3.59,4.12.82.94,1.63,1.89,2.44,2.84,1.08,1.27,2.17,2.54,3.24,3.82,1.45,1.71,2.88,3.43,4.31,5.16,1.21,1.46,2.42,2.92,3.62,4.4.54.65,1.08,1.31,1.61,2l3,3.73c.3.36.59.73.87,1.1q1.52,1.89,3,3.79c1.31,1.65,2.61,3.32,3.89,5,1,1.26,1.94,2.51,2.9,3.78.38.49.76,1,1.13,1.49.8,1,1.6,2.11,2.38,3.17q3,4,5.9,8c1.19,1.63,2.38,3.27,3.55,4.92s2.41,3.37,3.59,5.06c.19.24.36.49.53.74.8,1.15,1.61,2.3,2.41,3.46q4.59,6.62,9,13.34c1.26,1.9,2.51,3.82,3.76,5.74q1.51,2.33,3,4.67c.37.56.73,1.13,1.09,1.7q5.27,8.33,10.33,16.8l.24.4q3.45,5.77,6.79,11.62h0q3.33,5.85,6.58,11.76c1.15,2.09,2.28,4.19,3.41,6.29s2.16,4.06,3.22,6.09,2.12,4.08,3.17,6.12,2.09,4.1,3.12,6.16c1.27,2.53,2.53,5.08,3.75,7.63.76,1.54,1.5,3.08,2.24,4.62.11.23.22.46.32.69q1.36,2.85,2.7,5.72c.94,2,1.88,4,2.8,6.07q.22.47.42.93c.85,1.86,1.68,3.72,2.51,5.59q1.41,3.16,2.78,6.35,1.27,2.92,2.52,5.87c.23.56.47,1.11.7,1.67q1,2.41,2,4.84c.3.71.59,1.41.87,2.12.37.91.75,1.83,1.11,2.75h-28.35Z"/><path d="M2919.78,2026.78q-1.55-3.09-3.12-6.16C2917.72,2022.67,2918.75,2024.72,2919.78,2026.78Z"/><path d="M2916.66,2020.62c-1-2-2.1-4.08-3.17-6.12C2914.56,2016.53,2915.62,2018.58,2916.66,2020.62Z"/><path d="M2913.49,2014.5c-1.06-2-2.14-4.06-3.22-6.09Q2911.91,2011.44,2913.49,2014.5Z"/><path d="M2906.86,2002.12q-3.24-5.91-6.58-11.76Q2903.63,1996.21,2906.86,2002.12Z"/><path d="M2893.48,1978.73q3.45,5.77,6.79,11.62Q2896.93,1984.52,2893.48,1978.73Z"/><path d="M2882.91,1961.53q5.28,8.33,10.33,16.8Q2888.19,1969.86,2882.91,1961.53Z"/><path d="M2881.82,1959.83q-1.49-2.34-3-4.67Q2880.34,1957.49,2881.82,1959.83Z"/><path d="M2878.82,1955.16c-1.25-1.92-2.5-3.84-3.76-5.74C2876.33,1951.32,2877.58,1953.24,2878.82,1955.16Z"/><path d="M2866,1936.08c-.8-1.16-1.61-2.31-2.41-3.46C2864.43,1933.77,2865.23,1934.92,2866,1936.08Z"/><path d="M2863.09,1931.88q-1.77-2.54-3.59-5.06Q2861.32,1929.34,2863.09,1931.88Z"/><path d="M2859.5,1926.82c-1.17-1.65-2.36-3.29-3.55-4.92Q2857.75,1924.36,2859.5,1926.82Z"/><path d="M2850.05,1913.92c-.78-1.06-1.58-2.12-2.38-3.17C2848.47,1911.8,2849.27,1912.86,2850.05,1913.92Z"/><path d="M2846.54,1909.26c-1-1.27-1.93-2.52-2.9-3.78C2844.61,1906.74,2845.58,1908,2846.54,1909.26Z"/><path d="M2839.75,1900.49q-1.48-1.9-3-3.79C2837.77,1898,2838.76,1899.22,2839.75,1900.49Z"/><path d="M2835.88,1895.6l-3-3.73Q2834.39,1893.73,2835.88,1895.6Z"/><path d="M2831.27,1889.89c-1.2-1.48-2.41-2.94-3.62-4.4C2828.87,1887,2830.07,1888.41,2831.27,1889.89Z"/><path d="M2827.65,1885.49c-1.43-1.73-2.86-3.45-4.31-5.16Q2825.52,1882.9,2827.65,1885.49Z"/><path d="M2823.34,1880.33c-1.07-1.28-2.16-2.55-3.24-3.82Q2821.74,1878.42,2823.34,1880.33Z"/><path d="M2820.1,1876.51c-.81-1-1.62-1.9-2.44-2.84Z"/><path d="M2814.07,1869.55l-3.22-3.65Q2812.47,1867.71,2814.07,1869.55Z"/><path d="M2809.18,1864c-.92-1-1.85-2.07-2.79-3.11C2807.33,1862,2808.27,1863,2809.18,1864Z"/><path d="M2805.17,1859.59q-1.66-1.85-3.38-3.69Q2803.5,1857.75,2805.17,1859.59Z"/><path d="M2795.68,1849.34l-3.77-4C2793.18,1846.69,2794.43,1848,2795.68,1849.34Z"/><path d="M2791.8,1845.26c-1.45-1.5-2.89-3-4.35-4.49Q2789.64,1843,2791.8,1845.26Z"/><path d="M2786.81,1840.11c-1.39-1.42-2.78-2.83-4.19-4.24C2784,1837.28,2785.43,1838.69,2786.81,1840.11Z"/><path d="M2782.15,1835.39q-1.93-2-3.9-3.89Q2780.22,1833.42,2782.15,1835.39Z"/><path d="M2776.6,1829.87c-1-1-2-2-3-2.94C2774.6,1827.89,2775.6,1828.87,2776.6,1829.87Z"/><path d="M2770.88,1257.24v13.24H1736.28v-13.24a196.09,196.09,0,0,1,196.13-196.13h642.34C2682.9,1061.11,2770.88,1149.1,2770.88,1257.24ZM1763.26,1244H2743.9c-6.78-87.39-80.05-156.43-169.15-156.43H1932.41A169.63,169.63,0,0,0,1763.26,1244Z"/><path d="M2742.67,2169.93a522.34,522.34,0,0,1,35.62,190.38c0,140.16-54.58,271.92-153.69,371S2393.73,2885,2253.57,2885s-271.91-54.58-371-153.68-153.68-230.87-153.68-371a524.8,524.8,0,0,1,1013.8-190.38Zm9.15,190.38A495.79,495.79,0,0,0,2718,2179.54c-37.56-96.43-101.91-175.79-182.76-231s-178.17-86.41-281.67-86.41c-207,0-389.3,124.61-464.42,317.46a496,496,0,0,0-33.81,180.77c0,274.73,223.51,498.24,498.23,498.24S2751.82,2635,2751.82,2360.31Z"/><path d="M2769.15,1822.64c-.85-.83-1.71-1.65-2.57-2.45Z"/><path d="M2766.58,1820.19c-1.14-1.09-2.28-2.16-3.43-3.23Q2764.88,1818.55,2766.58,1820.19Z"/><path d="M2763,1816.79c-1.57-1.48-3.16-3-4.75-4.41C2759.81,1813.84,2761.4,1815.31,2763,1816.79Z"/><path d="M2757.87,1812.07q-2.13-2-4.28-3.91Q2755.73,1810.1,2757.87,1812.07Z"/><path d="M2752.24,1807l-4-3.62C2749.56,1804.53,2750.9,1805.73,2752.24,1807Z"/><path d="M2747.79,1803l-4.74-4.17Q2745.43,1800.87,2747.79,1803Z"/><path d="M2743,1798.72c-1.68-1.46-3.37-2.92-5.06-4.36C2739.59,1795.8,2741.27,1797.26,2743,1798.72Z"/><path d="M2737.89,1794.36c-1.71-1.47-3.44-2.93-5.17-4.38C2734.45,1791.43,2736.18,1792.89,2737.89,1794.36Z"/><path d="M2726.69,1785l-4.44-3.62C2723.73,1782.55,2725.21,1783.75,2726.69,1785Z"/><path d="M2712.25,1773.39l-2.8-2.17Z"/><path d="M2709.45,1771.22l-3.23-2.48Z"/><path d="M2706.22,1768.74q-2.7-2.07-5.43-4.12Q2703.52,1766.66,2706.22,1768.74Z"/><path d="M1826.6,2970.78q3.68,2.56,7.36,5.09Q1830.27,2973.35,1826.6,2970.78Z"/><path d="M1812.07,2960.33q3.6,2.65,7.24,5.27Q1815.68,2963,1812.07,2960.33Z"/><path d="M1811.83,1760.55c-1.83,1.35-3.66,2.71-5.47,4.07C1808.18,1763.25,1810,1761.9,1811.83,1760.55Z"/><path d="M1806.36,1764.62q-2.73,2.06-5.43,4.12Q1803.63,1766.65,1806.36,1764.62Z"/><path d="M1797.78,2949.52q3.54,2.74,7.12,5.45Q1801.33,2952.27,1797.78,2949.52Z"/><path d="M1800.93,1768.74q-2.46,1.88-4.9,3.78Q1798.48,1770.62,1800.93,1768.74Z"/><path d="M1787.23,2941.18q5.24,4.21,10.55,8.34Q1792.47,2945.41,1787.23,2941.18Z"/><path d="M1790.21,1777.1c-1.78,1.41-3.54,2.82-5.3,4.25C1786.67,1779.92,1788.43,1778.5,1790.21,1777.1Z"/><path d="M1784.91,1781.35c-1.76,1.42-3.52,2.85-5.26,4.29Q1782.28,1783.47,1784.91,1781.35Z"/><path d="M1780.27,2935.51q3.46,2.85,7,5.67Q1783.74,2938.38,1780.27,2935.51Z"/><path d="M1779.65,1785.64q-5,4.08-9.82,8.24Q1774.71,1789.71,1779.65,1785.64Z"/><path d="M1769,1794.62c-1.61,1.38-3.22,2.76-4.82,4.16Q1766.54,1796.68,1769,1794.62Z"/><path d="M1763.15,2921q3.38,3,6.8,5.89Q1766.53,2923.92,1763.15,2921Z"/><path d="M1764.14,1798.78l-4.87,4.27C1760.88,1801.62,1762.51,1800.19,1764.14,1798.78Z"/><path d="M1758.94,1803.33l-4,3.62Q1756.92,1805.14,1758.94,1803.33Z"/><path d="M1753.62,1808.11q-2.31,2.09-4.6,4.2Q1751.32,1810.18,1753.62,1808.11Z"/><path d="M1749,1812.31q-2.49,2.28-5,4.59Q1746.53,1814.57,1749,1812.31Z"/><path d="M1744.07,1816.9c-1.53,1.42-3,2.86-4.55,4.29C1741,1819.75,1742.54,1818.31,1744.07,1816.9Z"/><path d="M1738.81,1821.87l-3.25,3.12Q1737.18,1823.42,1738.81,1821.87Z"/><path d="M1733.67,1826.82q-2.1,2-4.19,4.11C1730.87,1829.55,1732.26,1828.18,1733.67,1826.82Z"/><path d="M1729.48,1830.93q-2,2-4,4C1726.78,1833.6,1728.13,1832.26,1729.48,1830.93Z"/><path d="M1724,1836.43q-2,2-4,4.06Q1722,1838.45,1724,1836.43Z"/><path d="M1720,1840.49c-1.56,1.59-3.1,3.19-4.64,4.79C1716.87,1843.67,1718.42,1842.08,1720,1840.49Z"/><path d="M1715.25,1845.37q-2.31,2.42-4.59,4.84C1712.18,1848.59,1713.71,1847,1715.25,1845.37Z"/><path d="M1710.66,1850.21q-2.1,2.24-4.17,4.47C1707.86,1853.18,1709.26,1851.69,1710.66,1850.21Z"/><path d="M1705.59,1855.65l-3.13,3.41C1703.49,1857.92,1704.54,1856.78,1705.59,1855.65Z"/><path d="M1702.46,1859.06c-.71.77-1.41,1.55-2.11,2.32C1701.06,1860.61,1701.76,1859.83,1702.46,1859.06Z"/><path d="M1700.35,1861.38l-2.13,2.38Z"/><path d="M1698.22,1863.76c-.89,1-1.77,2-2.64,3C1696.45,1865.73,1697.33,1864.75,1698.22,1863.76Z"/><path d="M1693.76,1868.78q-1.23,1.4-2.43,2.79Q1692.53,1870.18,1693.76,1868.78Z"/><path d="M1691.33,1871.57c-.93,1-1.85,2.11-2.75,3.17C1689.48,1873.68,1690.4,1872.62,1691.33,1871.57Z"/><path d="M1687.85,1875.59c-1.36,1.58-2.7,3.15-4,4.74Q1685.81,1877.95,1687.85,1875.59Z"/><path d="M1683.81,1880.33c-1.45,1.71-2.88,3.43-4.31,5.16Q1681.63,1882.9,1683.81,1880.33Z"/><path d="M1679.5,1885.49q-2.14,2.58-4.26,5.19Q1677.36,1888.07,1679.5,1885.49Z"/><path d="M1675.24,1890.68c-1.35,1.65-2.68,3.31-4,5Q1673.21,1893.16,1675.24,1890.68Z"/><path d="M1670.4,1896.7q-1.51,1.89-3,3.79Q1668.89,1898.59,1670.4,1896.7Z"/><path d="M1663.51,1905.48c-1,1.26-1.94,2.51-2.9,3.78C1661.57,1908,1662.54,1906.74,1663.51,1905.48Z"/><path d="M1659.48,1910.75c-.8,1-1.6,2.11-2.38,3.17C1657.89,1912.86,1658.68,1911.8,1659.48,1910.75Z"/><path d="M1651.2,1921.9c-.85,1.16-1.7,2.34-2.53,3.51C1649.5,1924.24,1650.35,1923.07,1651.2,1921.9Z"/><path d="M1643.46,1932.72c-.9,1.29-1.81,2.59-2.7,3.89C1641.65,1935.31,1642.56,1934,1643.46,1932.72Z"/><path d="M1638.21,1940.33q-1.41,2-2.79,4.1Q1636.8,1942.38,1638.21,1940.33Z"/><path d="M1606.88,1990.36q-1.7,3-3.38,6C1604.62,1994.34,1605.74,1992.35,1606.88,1990.36Z"/><path d="M1591,2081.63l-7,18-3.28,8.43h-28.14q3.26-9.06,6.76-18,1.65-4.23,3.34-8.43H1591Z"/><path d="M1589.44,2022.69q-1,2-2.06,4.09Q1588.4,2024.73,1589.44,2022.69Z"/><path d="M1583.63,2034.41c-.76,1.54-1.5,3.08-2.24,4.62C1582.12,2037.49,1582.86,2036,1583.63,2034.41Z"/><path d="M1581.07,2039.72c-.92,1.9-1.81,3.81-2.7,5.72Q1579.69,2042.57,1581.07,2039.72Z"/><path d="M1578.37,2045.44c-.94,2-1.88,4-2.8,6.07Q1577,2048.47,1578.37,2045.44Z"/><path d="M1575.15,2052.44c-.85,1.86-1.68,3.72-2.51,5.59Q1573.87,2055.22,1575.15,2052.44Z"/><path d="M1572.64,2058q-1.41,3.16-2.78,6.35Q1571.23,2061.2,1572.64,2058Z"/><path d="M1569.86,2064.38q-1.27,2.92-2.52,5.87Q1568.59,2067.31,1569.86,2064.38Z"/><path d="M1566.64,2071.92q-1,2.41-2,4.84Q1565.62,2074.33,1566.64,2071.92Z"/><path d="M1563.76,2078.88c-.37.91-.75,1.83-1.11,2.75h0C1563,2080.71,1563.38,2079.79,1563.76,2078.88Z"/><path d="M447.51,2081.63H1562.64q-1.7,4.2-3.34,8.43-3.49,9-6.76,18H421v-26.47Z"/><path d="M1551.19,2111.89c-.45,1.26-.89,2.52-1.33,3.79C1550.3,2114.42,1550.74,2113.15,1551.19,2111.89Z"/><path d="M1542.18,2139c-.43,1.38-.85,2.75-1.27,4.12C1541.33,2141.72,1541.75,2140.35,1542.18,2139Z"/><path d="M1540.91,2143.1c-.84,2.75-1.66,5.51-2.46,8.26Q1539.65,2147.22,1540.91,2143.1Z"/><path d="M1538.45,2151.36q-.62,2.07-1.2,4.14Q1537.84,2153.43,1538.45,2151.36Z"/><path d="M1537.25,2155.5l-1.17,4.15C1536.46,2158.27,1536.85,2156.88,1537.25,2155.5Z"/><path d="M1536.08,2159.65c-.39,1.38-.77,2.76-1.15,4.15C1535.3,2162.41,1535.69,2161,1536.08,2159.65Z"/><path d="M1534.93,2163.8c-.38,1.38-.75,2.77-1.12,4.15C1534.17,2166.56,1534.55,2165.18,1534.93,2163.8Z"/><path d="M1532.71,2172.12c-.36,1.38-.72,2.77-1.07,4.16C1532,2174.89,1532.34,2173.5,1532.71,2172.12Z"/><path d="M1531.64,2176.28c-.36,1.4-.71,2.79-1.05,4.18C1530.93,2179.06,1531.28,2177.67,1531.64,2176.28Z"/><path d="M1526.78,2196.54q1.34-6,2.78-11.9Q1528.12,2190.58,1526.78,2196.54Z"/><path d="M1526.44,2198.07q-1.71,7.71-3.26,15.47Q1524.71,2205.79,1526.44,2198.07Z"/><path d="M1522.23,2218.35c-.27,1.39-.53,2.77-.79,4.16C1521.69,2221.12,1522,2219.74,1522.23,2218.35Z"/><path d="M1520.66,2226.75l-.75,4.18C1520.15,2229.54,1520.4,2228.14,1520.66,2226.75Z"/><path d="M1519,2236.08q-1,5.84-1.87,11.7Q1518,2241.92,1519,2236.08Z"/><path d="M1516.5,2252.26c-.21,1.43-.41,2.85-.61,4.27C1516.09,2255.1,1516.29,2253.68,1516.5,2252.26Z"/><path d="M1515.89,2256.53c-.2,1.43-.39,2.85-.58,4.28C1515.5,2259.38,1515.69,2258,1515.89,2256.53Z"/><path d="M1514.75,2265.09q-.54,4.27-1,8.57C1514,2270.8,1514.38,2267.94,1514.75,2265.09Z"/><path d="M1512.77,2282.25c-.15,1.44-.3,2.87-.44,4.31C1512.47,2285.12,1512.62,2283.68,1512.77,2282.25Z"/><path d="M1512.33,2286.56c-.11,1.12-.22,2.24-.32,3.36C1512.11,2288.8,1512.22,2287.68,1512.33,2286.56Z"/><path d="M1511.85,2291.65q-.36,3.92-.67,7.84Q1511.5,2295.56,1511.85,2291.65Z"/><path d="M1510.29,2311.74l-.21,3.4Z"/><path d="M1509.74,2321.38c-.08,1.36-.14,2.72-.2,4.08C1509.6,2324.1,1509.66,2322.74,1509.74,2321.38Z"/><path d="M1508.88,2345.55c0,.86,0,1.72,0,2.58C1508.85,2347.27,1508.87,2346.41,1508.88,2345.55Z"/><polygon points="1376.59 1285.29 1376.59 1311.76 1129.99 1311.76 1129.99 1285.29 1156.46 1285.29 1350.12 1285.29 1376.59 1285.29"/><path d="M1376.59,1280.22v5.07h-26.47v-5.07a96.83,96.83,0,0,0-193.66,0v5.07H1130v-5.07a123.3,123.3,0,0,1,246.6,0Z"/><rect x="997.83" y="1285.29" width="132.16" height="26.47"/><path d="M997.83,1285.29v26.47H822.74c-10.63,0-21.28.45-31.84,1.33-2.34.2-4.69.42-7,.66s-4.67.5-7,.79c-3.49.42-7,.9-10.42,1.42l-2.39.37-12.83,1.94v-26.61q5.61-1,11.27-1.87,7.54-1.14,15.2-2c1.86-.21,3.73-.4,5.59-.58s3.59-.34,5.38-.49l.78-.06c1.39-.12,2.78-.23,4.17-.32.64,0,1.29-.1,1.93-.13,1.7-.13,3.41-.23,5.11-.31,1.49-.09,3-.16,4.47-.23l1.24-.05c1.67-.07,3.33-.12,5-.17h.07c1.7,0,3.4-.09,5.09-.11l1.3,0c1.64,0,3.27,0,4.91,0H997.83Z"/><path d="M997.83,1143.14v142.15H971.36V1143.14a96.83,96.83,0,0,0-193.66,0v144.65q-7.65.86-15.2,2-5.65.86-11.27,1.87V1143.14a123.3,123.3,0,0,1,246.6,0Z"/><path d="M822.74,1285.29c-1.64,0-3.27,0-4.91,0C819.47,1285.3,821.1,1285.29,822.74,1285.29Z"/><path d="M816.53,1285.34c-1.69,0-3.39.06-5.09.11C813.13,1285.4,814.83,1285.36,816.53,1285.34Z"/><path d="M811.37,1285.45c-1.67,0-3.33.1-5,.17C808,1285.55,809.7,1285.5,811.37,1285.45Z"/><path d="M805.13,1285.67c-1.49.07-3,.14-4.47.23C802.15,1285.81,803.64,1285.74,805.13,1285.67Z"/><path d="M795.55,1286.21c-.64,0-1.29.08-1.93.13C794.27,1286.29,794.91,1286.24,795.55,1286.21Z"/><path d="M793.62,1286.34c-1.39.09-2.78.2-4.17.32C790.84,1286.54,792.23,1286.43,793.62,1286.34Z"/><path d="M788.67,1286.72c-1.79.15-3.59.31-5.38.49C785.08,1287,786.87,1286.87,788.67,1286.72Z"/><path d="M783.87,1313.75c2.34-.24,4.69-.46,7-.66C788.56,1313.29,786.21,1313.51,783.87,1313.75Z"/><path d="M783.29,1287.21c-1.86.18-3.73.37-5.59.58Q780.49,1287.47,783.29,1287.21Z"/><path d="M766.45,1316c3.46-.52,6.93-1,10.42-1.42q-5.24.64-10.42,1.43l-2.39.36Z"/><path d="M751.23,1318.27l12.83-1.94C583.42,1344.7,447.51,1503.6,447.51,1687v394.66H421V1687a401.76,401.76,0,0,1,330.19-395.31Z"/><path class="cls-3" d="M1522.3,1285.29c6.89-140.46,123-252.22,265.12-252.22h932.32c142.15,0,258.23,111.76,265.12,252.22"/><path class="cls-4" d="M764.47,3155a63.13,63.13,0,0,1,63.13-63.13h472.62a63.13,63.13,0,1,1,0,126.26H827.6A63.13,63.13,0,0,1,764.47,3155Z"/><rect class="cls-5" width="4500" height="4500"/></g></g></svg>